<?xml version="1.0" standalone="no"?>
<!DOCTYPE svg PUBLIC "-//W3C//DTD SVG 20010904//EN"
 "http://www.w3.org/TR/2001/REC-SVG-20010904/DTD/svg10.dtd">
<svg version="1.0" xmlns="http://www.w3.org/2000/svg"
 width="260.000000pt" height="260.000000pt" viewBox="0 0 260.000000 260.000000"
 preserveAspectRatio="xMidYMid meet">
<metadata>
Created by potrace 1.14, written by Peter Selinger 2001-2017
</metadata>
<g transform="translate(0.000000,260.000000) scale(0.100000,-0.100000)"
fill="#000000" stroke="none">
<path d="M343 2085 c-76 -21 -123 -47 -185 -104 -62 -56 -101 -122 -123 -206
-22 -87 -22 -1009 0 -1104 40 -169 173 -294 342 -321 78 -13 1769 -13 1848 0
123 20 250 112 306 221 47 93 50 136 47 682 -3 510 -3 512 -26 570 -44 109
-140 205 -249 248 l-58 24 -925 2 c-775 2 -934 0 -977 -12z m1049 -412 c27
-28 37 -85 38 -225 l0 -118 140 0 c160 0 191 -9 209 -61 22 -64 5 -131 -40
-154 -21 -11 -64 -15 -169 -15 l-140 0 0 -122 c-1 -205 -23 -248 -125 -248
-46 0 -60 5 -87 29 l-33 29 -3 156 -3 156 -150 0 -151 0 -29 29 c-25 26 -29
37 -29 86 0 49 4 60 29 86 l29 29 151 0 150 0 3 156 3 156 34 30 c31 28 38 30
93 26 42 -3 65 -10 80 -25z"/>
</g>
</svg>
